<svg width="457" height="386" xmlns="http://www.w3.org/2000/svg">

 <g>
  <title>background</title>
  <rect fill="none" id="canvas_background" height="388" width="459" y="-1" x="-1"/>
 </g>
 <g>
  <title>Layer 1</title>
  <path stroke="null" id="svg_1" d="m20.5,72.479593l416,0c8.837,0 16,-6.961998 16,-15.551021l0,-38.877552c0,-8.589023 -7.163,-15.551021 -16,-15.551021l-416,0c-8.837,0 -16,6.961998 -16,15.551021l0,38.877552c0,8.589023 7.163,15.551021 16,15.551021zm0,155.510206l416,0c8.837,0 16,-6.961998 16,-15.551021l0,-38.877552c0,-8.589023 -7.163,-15.551021 -16,-15.551021l-416,0c-8.837,0 -16,6.961998 -16,15.551021l0,38.877552c0,8.589023 7.163,15.551021 16,15.551021zm0,155.510206l416,0c8.837,0 16,-6.961998 16,-15.551021l0,-38.877552c0,-8.589023 -7.163,-15.551021 -16,-15.551021l-416,0c-8.837,0 -16,6.961998 -16,15.551021l0,38.877552c0,8.589023 7.163,15.551021 16,15.551021z"/>
 </g>
</svg>