<?xml version="1.0" encoding="UTF-8" standalone="no"?><!DOCTYPE svg PUBLIC "-//W3C//DTD SVG 1.1//EN" "http://www.w3.org/Graphics/SVG/1.1/DTD/svg11.dtd"><svg width="100%" height="100%" viewBox="0 0 22 19" version="1.1" xmlns="http://www.w3.org/2000/svg" xmlns:xlink="http://www.w3.org/1999/xlink" xml:space="preserve" xmlns:serif="http://www.serif.com/" style="fill-rule:evenodd;clip-rule:evenodd;stroke-linejoin:round;stroke-miterlimit:1.41421;"><rect id="Background" x="0" y="0" width="22" height="19" style="fill:#eee;"/><rect x="-14" y="-15" width="399.338" height="50" style="fill:#fff;"/><g><path d="M21,3.635c0,-1.104 -0.896,-2 -2,-2l-16,0c-1.104,0 -2,0.896 -2,2c0,1.103 0.896,2 2,2l16,0c1.104,0 2,-0.897 2,-2Z"/><path d="M21,9.635c0,-1.104 -0.896,-2 -2,-2l-16,0c-1.104,0 -2,0.896 -2,2c0,1.103 0.896,2 2,2l16,0c1.104,0 2,-0.897 2,-2Z"/><path d="M21,15.635c0,-1.104 -0.896,-2 -2,-2l-16,0c-1.104,0 -2,0.896 -2,2c0,1.103 0.896,2 2,2l16,0c1.104,0 2,-0.897 2,-2Z"/></g></svg>